# xmcd CD database file
#
# Track frame offsets:
#	150
#	30320
#	57675
#	85935
#	102886
#	126367
#	150350
#	172276
#	192971
#	214072
#	224921
#
# Disc length: 3323 seconds
#
# Revision: 0
# Processed by: cddbd v1.5PL3 Copyright (c) Steve Scherf et al.
# Submitted via: CDex 1.51
#
DISCID=a30cf90b
DTITLE=Kamal - Papillon
DYEAR=1999
DGENRE=New Age
TTITLE0=Papillon
TTITLE1=While You Were Gone
TTITLE2=The Rhythm Of Life
TTITLE3=Song For My Cloud
TTITLE4=Tales Of Bululu
TTITLE5=Seeing Beyond
TTITLE6=Over The Hills Not A Wish Away
TTITLE7=Manjuh
TTITLE8=The Flying Days
TTITLE9=Between The Lines
TTITLE10=Papillon [Yelleleh-Dance-Mix]
EXTD=YEAR: 1999
EXTT0=
EXTT1=
EXTT2=
EXTT3=
EXTT4=
EXTT5=
EXTT6=
EXTT7=
EXTT8=
EXTT9=
EXTT10=
PLAYORDER=
